<svg width="39" height="18" viewBox="0 0 39 18" fill="none" xmlns="http://www.w3.org/2000/svg">
<path d="M1 7.75H0V9.75H1V7.75ZM37.7106 9.45711C38.1011 9.06658 38.1011 8.43342 37.7106 8.04289L31.3466 1.67893C30.9561 1.28841 30.3229 1.28841 29.9324 1.67893C29.5419 2.06946 29.5419 2.70262 29.9324 3.09315L35.5893 8.75L29.9324 14.4069C29.5419 14.7974 29.5419 15.4305 29.9324 15.8211C30.3229 16.2116 30.9561 16.2116 31.3466 15.8211L37.7106 9.45711ZM1 9.75H37.0035V7.75H1V9.75Z" fill="white"/>
<line x1="29.5488" y1="1.29289" x2="32.5488" y2="4.29289" stroke="white" stroke-width="2"/>
<line x1="32.0488" y1="13.7071" x2="29.0488" y2="16.7071" stroke="white" stroke-width="2"/>
</svg>
