<?xml version="1.0" encoding="utf-8"?>
<!-- Generator: Adobe Illustrator 24.2.0, SVG Export Plug-In . SVG Version: 6.00 Build 0)  -->
<svg version="1.1" id="Layer_1" xmlns="http://www.w3.org/2000/svg" xmlns:xlink="http://www.w3.org/1999/xlink" x="0px" y="0px"
	 viewBox="0 0 24 23.6" style="enable-background:new 0 0 24 23.6;" xml:space="preserve">
<style type="text/css">
	.st0{fill:#FFFFFF;}
</style>
<g>
	<g id="XMLID_1_">
		<g>
			<path class="st0" d="M12,0c6.6,0,12,5.4,12,12c0,5.2-3.4,9.7-8,11.3c0-0.1,0-0.2,0-0.3v-2.7c0-1.2-0.8-2.8-1.9-3.4
				c4-0.4,5.9-2.4,5.9-5.1c0-1.2-0.5-2.3-1.3-3.2C19,7.7,19.3,5.7,18.6,5c-1.8,0-2.9,1.2-3.1,1.5c-1-0.3-2-0.5-3-0.5s-2,0.2-2.9,0.5
				C9.3,6.2,8.2,5,6.4,5C5.7,5.7,6.1,7.7,6.3,8.6C5.5,9.5,5,10.7,5,11.8c0,2.7,1.9,4.7,5.9,5.1c-0.7,0.4-1.3,1.1-1.6,2
				C8.7,19,8.1,19,7.6,19c-0.9,0-1.1-0.1-1.6-0.8c-0.5-0.6-1-1-1.6-1.2c-0.3,0-0.6,0.2-0.3,0.4c1,0.7,1,1.8,1.4,2.5
				c0.3,0.6,1.1,1,1.9,1c0.2,0,1,0,1.5,0v2c0,0.2,0,0.4,0.1,0.6C3.9,22.3,0,17.6,0,12C0,5.4,5.4,0,12,0z"/>
		</g>
		<g>
		</g>
	</g>
</g>
</svg>
