<?xml version="1.0" encoding="utf-8"?>
<!-- Generator: Adobe Illustrator 24.2.0, SVG Export Plug-In . SVG Version: 6.00 Build 0)  -->
<svg version="1.1" id="Layer_1" xmlns="http://www.w3.org/2000/svg" xmlns:xlink="http://www.w3.org/1999/xlink" x="0px" y="0px"
	 viewBox="0 0 24 24" style="enable-background:new 0 0 24 24;" xml:space="preserve">
<style type="text/css">
	.st0{fill:#FFFFFF;}
</style>
<g id="XMLID_1_">
	<g>
		<path class="st0" d="M24,4.6c-0.7,1-1.5,1.8-2.5,2.6c0.3,6.9-4.9,14.6-14,14.6c-2.8,0-5.4-0.8-7.6-2.2c2.6,0.3,5.2-0.4,7.3-2
			c-2.2,0-4-1.5-4.6-3.4c0.8,0.1,1.5,0.1,2.2-0.1c-2.4-0.5-4-2.6-3.9-4.9c0.7,0.4,1.4,0.6,2.2,0.6C1,8.3,0.4,5.4,1.7,3.2
			c2.4,3,6.1,4.9,10.1,5.1c-0.7-3.1,1.6-6,4.8-6c1.4,0,2.7,0.6,3.6,1.5c1.1-0.2,2.2-0.6,3.1-1.2c-0.4,1.2-1.1,2.1-2.2,2.7
			C22.2,5.2,23.1,4.9,24,4.6z"/>
	</g>
	<g>
	</g>
</g>
</svg>
